<svg width="16" height="16" viewBox="0 0 16 16" fill="none" xmlns="http://www.w3.org/2000/svg">
<path d="M8.06332 5.18253L8.06328 5.18263L8.07256 5.18623C8.08959 5.19283 8.10539 5.20217 8.11935 5.21386C8.14819 5.24792 8.16486 5.29072 8.16657 5.33545C8.16574 5.36117 8.15896 5.38637 8.14674 5.40906C8.1338 5.4331 8.11515 5.45359 8.09244 5.46873C8.06973 5.48387 8.04364 5.4932 8.01648 5.4959C7.98978 5.49856 7.96283 5.49472 7.93794 5.48474C7.91473 5.47487 7.89306 5.46177 7.87356 5.44585C7.86189 5.43227 7.85247 5.41687 7.84568 5.40025C7.83738 5.37994 7.83318 5.3582 7.83331 5.33627L7.83335 5.32838L7.83315 5.32049C7.83291 5.31112 7.83487 5.30183 7.83886 5.29335L7.84366 5.28319L7.84799 5.27283C7.8573 5.25055 7.86958 5.22966 7.88449 5.21072C7.89747 5.20049 7.91193 5.19222 7.9274 5.18623L7.92744 5.18632L7.93665 5.18253C7.97723 5.16586 8.02274 5.16586 8.06332 5.18253ZM7.88213 7.88219C7.91339 7.85093 7.95578 7.83337 7.99998 7.83337C8.04418 7.83337 8.08658 7.85093 8.11783 7.88219C8.14909 7.91345 8.16665 7.95584 8.16665 8.00004V10.6667C8.16665 10.7109 8.14909 10.7533 8.11783 10.7846C8.08658 10.8158 8.04419 10.8334 7.99998 10.8334C7.95578 10.8334 7.91339 10.8158 7.88213 10.7846C7.85088 10.7533 7.83332 10.7109 7.83332 10.6667V8.00004C7.83332 7.95584 7.85087 7.91345 7.88213 7.88219ZM4.57397 2.87264C5.58807 2.19504 6.78033 1.83337 7.99998 1.83337C8.8098 1.83337 9.61169 1.99288 10.3599 2.30278C11.108 2.61269 11.7878 3.06692 12.3605 3.63955C12.9331 4.21218 13.3873 4.89198 13.6972 5.64016C14.0071 6.38833 14.1666 7.19022 14.1666 8.00004C14.1666 9.21969 13.805 10.412 13.1274 11.4261C12.4498 12.4402 11.4867 13.2306 10.3599 13.6973C9.23305 14.164 7.99314 14.2862 6.79693 14.0482C5.60071 13.8103 4.50191 13.223 3.63949 12.3605C2.77707 11.4981 2.18975 10.3993 1.95181 9.2031C1.71386 8.00688 1.83599 6.76697 2.30273 5.64016C2.76947 4.51335 3.55986 3.55025 4.57397 2.87264ZM4.75916 12.8503C5.71844 13.4913 6.84626 13.8334 7.99998 13.8334C9.54708 13.8334 11.0308 13.2188 12.1248 12.1248C13.2187 11.0309 13.8333 9.54714 13.8333 8.00004C13.8333 6.84632 13.4912 5.7185 12.8502 4.75921C12.2092 3.79993 11.2982 3.05225 10.2323 2.61074C9.1664 2.16923 7.99351 2.05371 6.86196 2.27879C5.7304 2.50387 4.691 3.05945 3.87519 3.87525C3.05939 4.69106 2.50382 5.73046 2.27874 6.86201C2.05365 7.99357 2.16917 9.16646 2.61069 10.2324C3.0522 11.2983 3.79987 12.2093 4.75916 12.8503Z" fill="#333333" stroke="#6A6A6A"/>
</svg>
