<svg width="16" height="16" viewBox="0 0 16 16" fill="none" xmlns="http://www.w3.org/2000/svg">
<path d="M13.3333 3.83337H13.8333V3.33337V2.00004C13.8333 1.95584 13.8509 1.91345 13.8821 1.88219C13.9134 1.85093 13.9558 1.83337 14 1.83337C14.0442 1.83337 14.0866 1.85093 14.1178 1.88219C14.1491 1.91345 14.1666 1.95584 14.1666 2.00004V14C14.1666 14.0442 14.1491 14.0866 14.1178 14.1179L14.4714 14.4714L14.1178 14.1179C14.0866 14.1491 14.0442 14.1667 14 14.1667C13.9558 14.1667 13.9134 14.1491 13.8821 14.1179C13.8509 14.0866 13.8333 14.0442 13.8333 14V12.6667V12.1667H13.3333H12H11.5V12.6667V14C11.5 14.0442 11.4824 14.0866 11.4512 14.1179L11.8047 14.4714L11.4512 14.1179C11.4199 14.1491 11.3775 14.1667 11.3333 14.1667C11.2891 14.1667 11.2467 14.1491 11.2155 14.1179C11.1842 14.0866 11.1666 14.0442 11.1666 14V13.3334V12.8334H10.6666H5.33331H4.83331V13.3334V14C4.83331 14.0442 4.81575 14.0866 4.7845 14.1179C4.75324 14.1491 4.71085 14.1667 4.66665 14.1667C4.62244 14.1667 4.58005 14.1491 4.5488 14.1179C4.51754 14.0866 4.49998 14.0442 4.49998 14V12.6667V12.1667H3.99998H2.66665H2.16665V12.6667V14C2.16665 14.0442 2.14909 14.0866 2.11783 14.1179C2.08658 14.1491 2.04418 14.1667 1.99998 14.1667C1.95578 14.1667 1.91338 14.1491 1.88213 14.1179C1.85087 14.0866 1.83331 14.0442 1.83331 14V2.00004C1.83331 1.95584 1.85087 1.91345 1.88213 1.88219C1.91338 1.85093 1.95578 1.83337 1.99998 1.83337C2.04418 1.83337 2.08657 1.85093 2.11783 1.88219C2.14909 1.91345 2.16665 1.95584 2.16665 2.00004V3.33337V3.83337H2.66665H3.99998H4.49998V3.33337V2.00004C4.49998 1.95584 4.51754 1.91345 4.5488 1.88219C4.58005 1.85093 4.62244 1.83337 4.66665 1.83337C4.71085 1.83337 4.75324 1.85093 4.7845 1.88219C4.81575 1.91345 4.83331 1.95584 4.83331 2.00004V2.66671V3.16671H5.33331H10.6666H11.1666V2.66671V2.00004C11.1666 1.95584 11.1842 1.91344 11.2155 1.88219C11.2467 1.85093 11.2891 1.83337 11.3333 1.83337C11.3775 1.83337 11.4199 1.85093 11.4512 1.88219C11.4824 1.91345 11.5 1.95584 11.5 2.00004V3.33337V3.83337H12H13.3333ZM3.99998 11.8334H4.49998V11.3334V10V9.50004H3.99998H2.66665H2.16665V10V11.3334V11.8334H2.66665H3.99998ZM3.99998 9.16671H4.49998V8.66671V7.33337V6.83337H3.99998H2.66665H2.16665V7.33337V8.66671V9.16671H2.66665H3.99998ZM3.99998 6.50004H4.49998V6.00004V4.66671V4.16671H3.99998H2.66665H2.16665V4.66671V6.00004V6.50004H2.66665H3.99998ZM10.6666 12.5H11.1666V12V8.66671V8.16671H10.6666H5.33331H4.83331V8.66671V12V12.5H5.33331H10.6666ZM10.6666 7.83337H11.1666V7.33337V4.00004V3.50004H10.6666H5.33331H4.83331V4.00004V7.33337V7.83337H5.33331H10.6666ZM13.3333 11.8334H13.8333V11.3334V10V9.50004H13.3333H12H11.5V10V11.3334V11.8334H12H13.3333ZM13.3333 9.16671H13.8333V8.66671V7.33337V6.83337H13.3333H12H11.5V7.33337V8.66671V9.16671H12H13.3333ZM13.3333 6.50004H13.8333V6.00004V4.66671V4.16671H13.3333H12H11.5V4.66671V6.00004V6.50004H12H13.3333Z" fill="#6A6A6A" stroke="#6A6A6A"/>
</svg>
