<svg width="16" height="16" viewBox="0 0 16 16" fill="none" xmlns="http://www.w3.org/2000/svg">
<path d="M13.0864 3.42679L13.0866 3.42696C13.4285 3.76871 13.6998 4.1745 13.8849 4.62113C14.07 5.06776 14.1653 5.54649 14.1653 6.02996C14.1653 6.51342 14.07 6.99215 13.8849 7.43878C13.6998 7.88542 13.4285 8.2912 13.0866 8.63295L13.0862 8.63331L8.11955 13.6066L8.11834 13.6079C8.10285 13.6235 8.08442 13.6359 8.06411 13.6443L8.25639 14.1059L8.06411 13.6443C8.0438 13.6528 8.02201 13.6572 8.00001 13.6572C7.97801 13.6572 7.95622 13.6528 7.93592 13.6443L7.74363 14.1059L7.93591 13.6443C7.9156 13.6359 7.89717 13.6235 7.88168 13.6079L7.88047 13.6066L2.9138 8.63331L2.9138 8.6333L2.91232 8.63183C2.25193 7.97605 1.86454 7.0944 1.82816 6.16442C1.79179 5.23445 2.10913 4.32523 2.71628 3.61987C3.32343 2.9145 4.17529 2.46538 5.10032 2.36294C6.02535 2.26051 6.95484 2.51237 7.70161 3.06782L7.99901 3.28902L8.29712 3.06877C9.006 2.54504 9.87931 2.29312 10.7582 2.35882C11.6371 2.42452 12.4633 2.80349 13.0864 3.42679ZM12.7071 8.53996H12.7154L12.8607 8.39962C13.498 7.78414 13.8647 6.94069 13.8801 6.05483C13.8956 5.16897 13.5585 4.31326 12.943 3.67595C12.3275 3.03864 11.4841 2.67193 10.5982 2.65649C9.71236 2.64105 8.85665 2.97815 8.21934 3.59363L8.14669 3.66379L8.10696 3.75666L7.1403 6.01666L6.90977 6.55562L7.47834 6.69826L9.35992 7.17032C9.38641 7.17781 9.41108 7.1907 9.43237 7.20818L9.74961 6.82171L9.43237 7.20818C9.45348 7.22551 9.47081 7.24697 9.4833 7.27124C9.49306 7.29282 9.49812 7.31624 9.49812 7.33996C9.49812 7.36369 9.49306 7.38714 9.48327 7.40874L8.1528 10.0697L8.15278 10.0697L8.15101 10.0733C8.13727 10.1013 8.11592 10.125 8.08939 10.1415L8.35355 10.566L8.08939 10.1415C8.06287 10.158 8.03225 10.1667 8.00101 10.1666L7.99796 10.1666C7.97274 10.1667 7.94783 10.1611 7.9251 10.1502C7.90552 10.1406 7.88802 10.1273 7.87358 10.1109C7.85904 10.0945 7.84789 10.0754 7.84077 10.0546L7.36786 10.217L7.84077 10.0546C7.83365 10.0339 7.83069 10.0119 7.83207 9.99003C7.83345 9.96813 7.83914 9.94673 7.84881 9.92704L7.84999 9.92461L8.78332 7.99794L9.05091 7.44557L8.45585 7.2952L6.61102 6.829C6.61083 6.82895 6.61063 6.8289 6.61044 6.82885C6.58728 6.82281 6.5657 6.81186 6.54715 6.79674L6.23118 7.18425L6.54715 6.79674C6.53013 6.78286 6.51604 6.76578 6.50566 6.74647C6.49746 6.72644 6.49322 6.70498 6.49322 6.68329C6.49322 6.65942 6.49835 6.63584 6.50825 6.61412L6.50838 6.61418L6.51309 6.60317L7.65309 3.9365L7.80707 3.57633L7.49423 3.34062C6.81625 2.82979 5.9692 2.59628 5.12524 2.68754C4.28127 2.7788 3.50373 3.18799 2.95062 3.83195L3.32992 4.15773L2.95062 3.83195C2.39752 4.47591 2.11036 5.30631 2.14752 6.15438C2.18463 7.00143 2.54249 7.80262 3.14847 8.39552L7.64646 12.8935L8.00001 13.2471L8.35356 12.8935L12.7071 8.53996Z" fill="#6A6A6A" stroke="#6A6A6A"/>
</svg>
