<svg width="16" height="16" viewBox="0 0 16 16" fill="none" xmlns="http://www.w3.org/2000/svg">
<path d="M9.25388 3.64564L8.39583 4.49996H9.60667H12C12.3978 4.49996 12.7794 4.658 13.0607 4.9393C13.342 5.2206 13.5 5.60214 13.5 5.99996V11.3333C13.5 11.7311 13.342 12.1126 13.0607 12.394C12.7794 12.6753 12.3978 12.8333 12 12.8333H11.5V13.3333V14C11.5 14.0442 11.4824 14.0866 11.4512 14.1178C11.4199 14.1491 11.3775 14.1666 11.3333 14.1666C11.2891 14.1666 11.2467 14.1491 11.2155 14.1178C11.1842 14.0866 11.1667 14.0442 11.1667 14V13.3333V12.8333H10.6667H5.33333H4.83333V13.3333V14C4.83333 14.0442 4.81577 14.0866 4.78452 14.1178C4.75326 14.1491 4.71087 14.1666 4.66667 14.1666C4.62246 14.1666 4.58007 14.1491 4.54882 14.1178C4.51756 14.0866 4.5 14.0442 4.5 14V13.3333V12.8333H4C3.60218 12.8333 3.22064 12.6753 2.93934 12.394C2.65804 12.1126 2.5 11.7311 2.5 11.3333V5.99996C2.5 5.60214 2.65804 5.22061 2.93934 4.9393C3.22064 4.658 3.60218 4.49996 4 4.49996H6.66667H7.56748L7.09099 3.73548L6.49062 2.77225C6.4812 2.75442 6.47504 2.73504 6.47244 2.71502C6.46959 2.69301 6.4711 2.67066 6.47688 2.64924C6.48267 2.62782 6.49261 2.60775 6.50616 2.59017L6.11008 2.28501L6.50616 2.59017C6.5197 2.57259 6.53657 2.55786 6.55581 2.5468C6.57505 2.53574 6.59627 2.52859 6.61828 2.52573C6.64028 2.52288 6.66263 2.52439 6.68405 2.53018C6.70548 2.53596 6.72555 2.54591 6.74312 2.55945C6.7607 2.57299 6.77544 2.58986 6.78649 2.6091L6.78648 2.60911L6.78842 2.61243L7.56842 3.94577L7.89345 4.50137L8.35138 4.049L10.5447 1.88234L10.5447 1.88234L10.5469 1.88018C10.5787 1.84841 10.6217 1.83057 10.6667 1.83057C10.6889 1.83057 10.7109 1.83495 10.7315 1.84346L10.9224 1.38248L10.7315 1.84346C10.752 1.85197 10.7707 1.86445 10.7864 1.88018L11.14 1.52663L10.7864 1.88018C10.8022 1.89591 10.8147 1.91459 10.8232 1.93513L11.2838 1.74432L10.8232 1.93514C10.8317 1.95569 10.8361 1.97771 10.8361 1.99996C10.8361 2.02221 10.8317 2.04423 10.8232 2.06478L11.2851 2.25613L10.8232 2.06479C10.8147 2.08522 10.8023 2.10379 10.7867 2.11947C10.7866 2.11956 10.7865 2.11965 10.7864 2.11974L9.25388 3.64564ZM12.825 12.1583C13.0438 11.9395 13.1667 11.6427 13.1667 11.3333V5.99996C13.1667 5.69054 13.0438 5.3938 12.825 5.175C12.6062 4.95621 12.3094 4.83329 12 4.83329H4C3.69058 4.83329 3.39383 4.95621 3.17504 5.175C2.95625 5.3938 2.83333 5.69054 2.83333 5.99996V11.3333C2.83333 11.6427 2.95625 11.9395 3.17504 12.1583C3.39384 12.377 3.69058 12.5 4 12.5H12C12.3094 12.5 12.6062 12.377 12.825 12.1583Z" fill="#6A6A6A" stroke="#6A6A6A"/>
</svg>
