<svg width="16" height="16" viewBox="0 0 16 16" fill="none" xmlns="http://www.w3.org/2000/svg">
<path d="M11.3958 6.44308C11.108 6.17321 10.7281 6.02289 10.3333 6.02289C9.94647 6.02289 9.57394 6.16724 9.2883 6.427C9.26853 6.45624 9.25846 6.49118 9.25983 6.52678C9.26145 6.56872 9.27884 6.60851 9.30852 6.6382C9.33821 6.66788 9.378 6.68527 9.41994 6.68689C9.45816 6.68836 9.4956 6.67665 9.52607 6.65391C9.63002 6.55427 9.75159 6.47468 9.88467 6.41923C10.0268 6.36 10.1793 6.32951 10.3333 6.32951C10.4874 6.32951 10.6399 6.36 10.782 6.41923C10.9242 6.47846 11.0532 6.56526 11.1617 6.67461L11.3958 6.44308ZM11.3958 6.44308C11.4245 6.47388 11.4405 6.51447 11.4405 6.55671C11.4405 6.60024 11.4235 6.64203 11.3931 6.67315L11.3958 6.44308ZM6.10708 9.87123L6.10704 9.87127L6.11285 9.87595C6.6474 10.3069 7.31336 10.542 8.00001 10.542C8.68666 10.542 9.35263 10.3069 9.88718 9.87595L9.57335 9.48671L9.89295 9.87123C9.92711 9.84283 9.97115 9.82917 10.0154 9.83325C10.0373 9.83527 10.0586 9.84158 10.078 9.85183C10.0975 9.86208 10.1148 9.87606 10.1288 9.89297C10.1572 9.92714 10.1709 9.97118 10.1668 10.0154C10.1627 10.0597 10.1412 10.1005 10.1071 10.1289L10.1063 10.1295C9.51527 10.6229 8.76986 10.8931 8.00001 10.8931C7.23017 10.8931 6.48475 10.6229 5.89377 10.1295L5.89295 10.1289C5.85878 10.1005 5.8373 10.0597 5.83322 10.0154C5.82914 9.97118 5.8428 9.92714 5.8712 9.89297C5.8996 9.85881 5.9404 9.83733 5.98463 9.83325C6.02887 9.82917 6.07292 9.84283 6.10708 9.87123ZM4.57857 6.46648L4.58826 6.45819L4.5975 6.44942C4.88612 6.17556 5.26882 6.02289 5.66668 6.02289C6.06147 6.02289 6.44132 6.17321 6.72914 6.44308C6.75784 6.47388 6.77387 6.51447 6.77387 6.55671C6.77387 6.60024 6.75684 6.64203 6.72645 6.67315C6.69533 6.70354 6.65355 6.72057 6.61001 6.72057C6.56598 6.72057 6.52374 6.70315 6.49251 6.6721L6.14001 7.02671L6.49501 6.67461C6.38656 6.56526 6.25752 6.47846 6.11535 6.41923C5.97318 6.36 5.82069 6.32951 5.66668 6.32951C5.51267 6.32951 5.36018 6.36 5.21801 6.41923C5.07584 6.47846 4.9468 6.56526 4.83835 6.67461L4.82547 6.68759L4.81357 6.70148C4.79863 6.71893 4.78025 6.7331 4.75957 6.7431C4.73889 6.7531 4.71637 6.75873 4.69342 6.75961C4.67046 6.7605 4.64758 6.75663 4.62619 6.74825C4.6048 6.73987 4.58538 6.72716 4.56913 6.71092C4.55289 6.69468 4.54018 6.67525 4.5318 6.65387C4.52342 6.63248 4.51955 6.60959 4.52044 6.58664C4.52133 6.56368 4.52695 6.54116 4.53695 6.52048C4.54696 6.49981 4.56113 6.48142 4.57857 6.46648ZM4.574 2.87264C5.5881 2.19504 6.78036 1.83337 8.00001 1.83337C8.80983 1.83337 9.61172 1.99288 10.3599 2.30278C11.1081 2.61269 11.7879 3.06692 12.3605 3.63955C12.9331 4.21218 13.3874 4.89199 13.6973 5.64016C14.0072 6.38833 14.1667 7.19022 14.1667 8.00004C14.1667 9.21969 13.805 10.412 13.1274 11.4261C12.4498 12.4402 11.4867 13.2306 10.3599 13.6973C9.23308 14.164 7.99317 14.2862 6.79696 14.0482C5.60074 13.8103 4.50195 13.223 3.63952 12.3605C2.7771 11.4981 2.18978 10.3993 1.95184 9.2031C1.7139 8.00688 1.83602 6.76697 2.30276 5.64016C2.7695 4.51335 3.55989 3.55025 4.574 2.87264ZM4.75919 12.8503C5.71847 13.4913 6.84629 13.8334 8.00001 13.8334C9.54711 13.8334 11.0308 13.2188 12.1248 12.1248C13.2188 11.0309 13.8333 9.54714 13.8333 8.00004C13.8333 6.84632 13.4912 5.7185 12.8503 4.75921C12.2093 3.79993 11.2982 3.05225 10.2323 2.61074C9.16643 2.16923 7.99354 2.05371 6.86199 2.27879C5.73043 2.50387 4.69103 3.05944 3.87522 3.87525C3.05942 4.69106 2.50385 5.73046 2.27877 6.86201C2.05369 7.99357 2.1692 9.16646 2.61072 10.2324C3.05223 11.2983 3.7999 12.2093 4.75919 12.8503Z" fill="#6A6A6A" stroke="#6A6A6A"/>
</svg>
