<svg width="14" height="14" viewBox="0 0 14 14" fill="none" xmlns="http://www.w3.org/2000/svg">
<path d="M8.45863 1.35599L7.84684 1.19763L7.83345 1.82944C7.81083 2.89669 7.51333 3.94006 6.9697 4.85874L6.74067 5.24578L7.10136 5.51439C7.65656 5.92786 8.16717 6.39805 8.62492 6.91734L8.89969 7.22904L9.25641 7.01596C10.1403 6.48796 11.1449 6.1955 12.1741 6.16651L12.8013 6.14885L12.644 5.54141C12.3832 4.53382 11.8576 3.61437 11.1216 2.87841C10.3857 2.14246 9.46622 1.61681 8.45863 1.35599ZM7.5 1.66785L7.50115 1.16648L6.99977 1.16671C6.23126 1.16706 5.47039 1.31927 4.76088 1.61458C4.05137 1.9099 3.4072 2.3425 2.8654 2.88754L2.2147 3.54213L3.11844 3.72962C4.02287 3.91725 4.8964 4.23121 5.71334 4.66226L5.72415 4.66796L5.73523 4.67313C5.78487 4.6963 5.81391 4.7133 5.8544 4.73699C5.88923 4.75738 5.93253 4.78272 6.00471 4.82122L6.4227 5.04415L6.66785 4.63878C7.20992 3.74243 7.4976 2.71536 7.5 1.66785ZM2.40213 3.9448L2.06206 3.89755L1.89584 4.19797C1.4215 5.05526 1.17073 6.01821 1.16667 6.99797L1.1646 7.49907L1.66571 7.50004C2.42704 7.50151 3.18118 7.35272 3.88491 7.06221C4.58864 6.77171 5.22813 6.34519 5.76672 5.80709L6.21477 5.35947L5.67538 5.02754L5.58872 4.97421L5.57402 4.96517L5.55874 4.95716C4.57268 4.44046 3.50478 4.09797 2.40213 3.9448ZM5.54137 12.6441L6.14679 12.8008L6.16642 12.1757C6.19269 11.3395 6.38883 10.5174 6.74292 9.75939C7.09701 9.00138 7.60164 8.32335 8.22609 7.76657L8.60438 7.42927L8.26198 7.05559C7.83541 6.59004 7.36498 6.16665 6.85722 5.7913L6.49533 5.52379L6.19133 5.85562C5.63526 6.46259 4.96209 6.95074 4.21237 7.29065C3.46265 7.63057 2.65188 7.81522 1.8289 7.8335L1.19776 7.84751L1.35596 8.45867C1.61677 9.46626 2.14242 10.3857 2.87837 11.1217C3.61433 11.8576 4.53379 12.3833 5.54137 12.6441ZM6.5 12.3324L6.49902 12.8325L6.99917 12.8334C8.19254 12.8354 9.35733 12.4683 10.334 11.7826L10.6168 11.584L10.531 11.2493C10.2642 10.2078 9.82832 9.2171 9.24084 8.31669C9.20181 8.25519 9.14656 8.18452 9.11993 8.15047C9.11382 8.14266 9.10923 8.13678 9.10667 8.13337L8.77364 7.68934L8.36667 8.06677C7.77931 8.6115 7.31044 9.27137 6.98928 10.0053C6.66813 10.7391 6.50158 11.5313 6.5 12.3324ZM10.6649 10.4893L10.9506 11.3596L11.5281 10.6486C12.3656 9.61739 12.8261 8.33121 12.8333 7.00276L12.8361 6.49653L12.3299 6.50005C11.359 6.50681 10.4054 6.75776 9.55692 7.22977L9.02743 7.52434L9.41715 7.9883L9.53747 8.13154C10.0131 8.86565 10.3921 9.65811 10.6649 10.4893ZM4.04984 1.58857C4.95463 1.09416 5.96895 0.834515 7 0.833374C8.27554 0.834785 9.51926 1.2317 10.5598 1.96944C11.6005 2.70729 12.3868 3.74973 12.8102 4.95312C13.2337 6.15651 13.2735 7.46161 12.9242 8.68857C12.575 9.91509 11.8541 11.0032 10.8609 11.803C9.71924 12.7115 8.29243 13.1857 6.83406 13.1415C5.37526 13.0972 3.97945 12.5369 2.89485 11.5603C1.81026 10.5838 1.10718 9.25416 0.910665 7.80797C0.714193 6.36213 1.03677 4.89347 1.82104 3.66305C2.37889 2.79614 3.14518 2.0829 4.04984 1.58857Z" fill="#333333" stroke="#6A6A6A"/>
</svg>
