<svg width="17" height="17" viewBox="0 0 17 17" fill="none" xmlns="http://www.w3.org/2000/svg">
<path d="M2.5 4.5H3.83333H14.5" stroke="#F2F2F2" stroke-width="2" stroke-linecap="round" stroke-linejoin="round"/>
<path d="M5.83334 4.49998V3.16665C5.83334 2.81302 5.97382 2.47389 6.22387 2.22384C6.47392 1.97379 6.81305 1.83331 7.16668 1.83331H9.83334C10.187 1.83331 10.5261 1.97379 10.7762 2.22384C11.0262 2.47389 11.1667 2.81302 11.1667 3.16665V4.49998M13.1667 4.49998V13.8333C13.1667 14.1869 13.0262 14.5261 12.7762 14.7761C12.5261 15.0262 12.187 15.1666 11.8333 15.1666H5.16668C4.81305 15.1666 4.47392 15.0262 4.22387 14.7761C3.97382 14.5261 3.83334 14.1869 3.83334 13.8333V4.49998H13.1667Z" stroke="#F2F2F2" stroke-linecap="round" stroke-linejoin="round"/>
<path d="M9.83334 7.83331V11.8333" stroke="#F2F2F2" stroke-linecap="round" stroke-linejoin="round"/>
<path d="M7.16666 7.83331V11.8333" stroke="#F2F2F2" stroke-linecap="round" stroke-linejoin="round"/>
</svg>
